HIERARCHY
ROOT Hips
{
	OFFSET	0.00	0.00	0.00
	CHANNELS 6 Xposition Yposition Zposition Zrotation Xrotation Yrotation
	JOINT LeftUpLeg
	{
		OFFSET	 0.126116	-0.014019	-0.065224
		CHANNELS 3 Zrotation Xrotation Yrotation
		JOINT LeftLeg
		{
			OFFSET	 0.000000	 0.000000	 0.569914
			CHANNELS 3 Zrotation Xrotation Yrotation
			JOINT LeftFoot
			{
				OFFSET	 0.000000	 0.000000	 0.544423
				CHANNELS 3 Zrotation Xrotation Yrotation
				JOINT LeftToeBase
				{
					OFFSET	 0.000000	 0.000000	 0.207117
					CHANNELS 3 Zrotation Xrotation Yrotation
					End Site
					{
						OFFSET	 0.000000	 0.000000	 0.207117
					}
				}
			}
		}
	}
	JOINT RightUpLeg
	{
		OFFSET	-0.124023	-0.008373	-0.065224
		CHANNELS 3 Zrotation Xrotation Yrotation
		JOINT RightLeg
		{
			OFFSET	 0.000000	 0.000000	 0.570047
			CHANNELS 3 Zrotation Xrotation Yrotation
			JOINT RightFoot
			{
				OFFSET	 0.000000	 0.000000	 0.544354
				CHANNELS 3 Zrotation Xrotation Yrotation
				JOINT RightToeBase
				{
					OFFSET	 0.000000	 0.000000	 0.207540
					CHANNELS 3 Zrotation Xrotation Yrotation
					End Site
					{
						OFFSET	 0.000000	 0.000000	 0.207540
					}
				}
			}
		}
	}
	JOINT Spine
	{
		OFFSET	 0.000184	-0.007763	 0.117403
		CHANNELS 3 Zrotation Xrotation Yrotation
		JOINT Spine1
		{
			OFFSET	 0.000000	 0.000000	 0.137269
			CHANNELS 3 Zrotation Xrotation Yrotation
			JOINT Spine2
			{
				OFFSET	 0.000000	 0.000000	 0.156879
				CHANNELS 3 Zrotation Xrotation Yrotation
				JOINT LeftShoulder
				{
					OFFSET	 0.080501	-0.002496	 0.160144
					CHANNELS 3 Zrotation Xrotation Yrotation
					JOINT LeftArm
					{
						OFFSET	 0.000000	 0.000000	 0.164363
						CHANNELS 3 Zrotation Xrotation Yrotation
						JOINT LeftForeArm
						{
							OFFSET	 0.000000	 0.000000	 0.364576
							CHANNELS 3 Zrotation Xrotation Yrotation
							JOINT LeftHand
							{
								OFFSET	 0.000000	 0.000000	 0.360812
								CHANNELS 3 Zrotation Xrotation Yrotation
								JOINT LeftHandIndex1
								{
									OFFSET	 0.000000	 0.000000	 0.086006
									CHANNELS 3 Zrotation Xrotation Yrotation
									JOINT LeftHandIndex2
									{
										OFFSET	 0.000000	 0.000000	 0.047236
										CHANNELS 3 Zrotation Xrotation Yrotation
										JOINT LeftHandIndex3
										{
											OFFSET	-0.004284	-0.000551	 0.038166
											CHANNELS 3 Zrotation Xrotation Yrotation
											End Site
											{
												OFFSET	-0.004284	-0.000551	 0.038166
											}
										}
									}
								}
							}
						}
					}
				}
				JOINT Neck
				{
					OFFSET	 0.000000	 0.000000	 0.176489
					CHANNELS 3 Zrotation Xrotation Yrotation
					JOINT Head
					{
						OFFSET	 0.000000	-0.001747	 0.077940
						CHANNELS 3 Zrotation Xrotation Yrotation
						End Site
						{
							OFFSET	 0.000000	-0.001747	 0.077940
						}
					}
				}
				JOINT RightShoulder
				{
					OFFSET	-0.080363	 0.000306	 0.159706
					CHANNELS 3 Zrotation Xrotation Yrotation
					JOINT RightArm
					{
						OFFSET	 0.000000	 0.000000	 0.164196
						CHANNELS 3 Zrotation Xrotation Yrotation
						JOINT RightForeArm
						{
							OFFSET	 0.000000	 0.000000	 0.365611
							CHANNELS 3 Zrotation Xrotation Yrotation
							JOINT RightHand
							{
								OFFSET	 0.000000	 0.000000	 0.360648
								CHANNELS 3 Zrotation Xrotation Yrotation
								JOINT RightHandIndex1
								{
									OFFSET	 0.000000	 0.000000	 0.069977
									CHANNELS 3 Zrotation Xrotation Yrotation
									JOINT RightHandIndex2
									{
										OFFSET	 0.000000	 0.000000	 0.052305
										CHANNELS 3 Zrotation Xrotation Yrotation
										JOINT RightHandIndex3
										{
											OFFSET	 0.009002	-0.000782	 0.042196
											CHANNELS 3 Zrotation Xrotation Yrotation
											End Site
											{
												OFFSET	 0.009002	-0.000782	 0.042196
											}
										}
									}
								}
							}
						}
					}
				}
			}
		}
	}
}
MOTION
Frames:    8
Frame Time: 0.03333334
-1.841011	-14.685690	 1.154719	-13.572740	 17.519970	 3.768314	 3.575236	-34.857690	 175.452300	-1.507841	-43.058570	-0.429984	-0.802395	 81.062110	 0.456403	-2.353491	 34.005680	-0.125191	-0.747854	-35.976500	-179.470600	-2.915544	-42.948680	-0.918467	-1.603955	 81.433680	 0.567019	 2.406554	 19.974260	-0.173615	-0.805887	 15.101940	 1.571688	-1.831034	 1.991360	-1.836634	-2.892454	-3.807220	-0.286829	-125.467400	 89.276920	-142.094900	 56.281310	 66.310780	-61.941600	-10.075430	-1.452872	-24.241300	-1.573109	-2.205115	-5.374358	-5.587457	-12.127930	-1.161301	-5.213516	-0.193813	 3.566525	-1.378229	 35.397820	-2.634230	 0.794726	 0.083220	-3.780392	-0.676746	-6.915545	 1.237087	 93.697680	 85.956540	 172.029300	-60.502910	 75.467510	 69.530790	-2.807889	-14.478590	 31.526920	-24.866480	-3.186693	 9.583005	-9.785515	-9.759959	-38.793430	 5.070815	-0.697434	-9.399699	-2.350882	 35.473990	 5.254307
-1.842080	-14.703320	 1.155101	-13.523190	 18.287510	 3.818006	 3.572015	-34.967580	 175.603600	-2.034008	-43.328930	-0.803156	-1.023663	 81.912770	 0.230748	-2.349276	 34.568610	-0.138540	-0.756256	-35.594670	-179.437100	-2.501931	-42.447640	-0.647513	-1.521345	 82.731640	 0.864090	 2.405252	 21.122200	-0.150738	-0.644099	 14.699680	 1.390210	-1.753579	 1.595893	-1.936697	-2.981696	-4.287366	-0.308080	-122.766800	 89.212910	-144.723300	 61.267310	 67.624820	-63.694670	-8.620031	-1.667655	-22.493660	-0.791534	-2.248211	-5.369572	-4.977706	-11.542290	 0.216154	-5.213516	-0.193813	 3.566525	-1.378229	 35.397820	-2.634230	 0.731233	-0.237179	-3.547529	-0.801341	-7.549203	 1.103149	 93.653050	 86.007320	 172.195800	-51.967600	 78.436530	 58.339560	-4.174541	-12.807540	 25.479630	-27.149400	-3.200207	 9.556777	-9.181555	-8.532745	-38.249740	 5.070815	-0.697434	-9.399699	-2.350882	 35.473990	 5.254307
-1.843158	-14.718440	 1.155439	-13.894550	 18.821080	 3.920511	 3.548866	-34.904790	 175.655000	-2.129134	-43.699270	-0.900085	-1.102954	 82.464430	 0.194955	-2.339124	 35.830650	-0.169019	-0.730583	-35.264930	-179.566800	-2.297627	-42.198510	-0.495239	-1.452841	 83.304210	 1.001833	 2.404684	 21.521060	-0.142745	-0.384571	 14.396280	 1.257989	-1.556208	 1.187955	-1.817582	-2.959993	-4.756480	-0.317859	-116.803800	 89.040600	-150.602300	 64.681680	 68.726660	-64.649060	-7.601127	-1.822340	-21.233000	-0.128563	-2.277745	-5.363984	-4.169448	-10.736070	 2.085094	-5.213516	-0.193813	 3.566525	-1.378229	 35.397820	-2.634230	 0.819569	-0.528856	-3.318660	-0.867647	-8.175507	 1.112550	 93.876750	 86.237920	 172.097600	-39.994250	 80.247600	 44.080840	-4.693346	-11.821550	 22.423190	-28.627020	-3.219789	 9.516224	-8.806546	-7.661164	-37.978900	 5.070815	-0.697434	-9.399699	-2.350882	 35.473990	 5.254307
-1.843844	-14.731430	 1.157433	-14.388430	 19.364660	 3.930174	 3.576216	-34.790550	 175.755400	-2.435518	-43.580630	-1.094796	-1.208956	 82.426930	 0.086598	-2.330266	 36.842020	-0.193993	-0.815594	-35.426440	-179.438000	-2.549776	-42.110640	-0.716787	-1.627848	 83.390630	 0.934710	 2.404559	 21.598180	-0.141196	-0.257348	 14.072460	 1.113261	-1.420174	 0.913855	-1.542415	-2.840930	-5.058935	-0.312508	-109.904500	 88.743840	-157.532500	 66.707020	 69.629340	-65.098210	-7.232246	-1.876824	-20.347830	 0.217340	-2.301729	-5.359939	-3.916961	-10.783340	 2.680966	-5.213516	-0.193813	 3.566525	-1.378229	 35.397820	-2.634230	 0.927878	-0.674980	-2.939015	-0.788701	-8.565202	 1.380784	 94.450240	 86.586880	 171.558600	-29.824170	 80.798180	 32.139650	-4.889532	-11.263800	 21.087840	-29.203670	-3.232017	 9.489021	-8.685474	-7.597012	-37.735760	 5.070815	-0.697434	-9.399699	-2.350882	 35.473990	 5.254307
-1.845133	-14.741890	 1.159655	-14.804970	 19.757050	 3.882036	 3.574100	-34.542410	 175.786100	-2.692320	-43.311140	-1.265204	-1.291864	 82.198600	-0.020896	-2.323791	 37.535660	-0.211440	-0.835799	-35.343360	-179.259900	-2.873680	-41.939390	-0.949760	-1.815103	 83.377140	 0.859499	 2.404551	 21.605120	-0.141056	-0.200563	 13.804450	 1.126246	-1.336897	 0.779816	-1.361489	-2.724105	-5.195264	-0.302865	-107.433800	 88.595560	-160.068100	 67.510280	 70.016720	-65.417400	-6.341166	-2.130014	-19.814380	 1.235611	-2.321450	-5.349607	-3.954321	-11.009840	 2.594192	-5.213516	-0.193813	 3.566525	-1.378229	 35.397820	-2.634230	 1.002958	-0.804497	-2.604540	-0.685556	-8.649318	 1.564501	 94.849910	 86.783080	 171.160500	-24.391450	 80.732530	 25.612780	-5.198974	-11.221000	 20.857620	-29.539040	-3.235373	 9.479351	-8.603193	-7.694605	-37.470700	 5.070815	-0.697434	-9.399699	-2.350882	 35.473990	 5.254307
-1.847411	-14.750590	 1.161331	-14.919610	 19.963970	 3.851533	 3.566409	-34.233120	 175.807100	-2.643563	-43.037570	-1.228912	-1.317405	 82.227560	 0.023030	-2.319245	 38.003180	-0.223345	-0.726327	-34.948570	-179.229300	-2.961047	-41.459260	-0.949452	-1.800400	 83.517140	 0.849685	 2.404910	 21.366390	-0.145846	-0.219133	 13.463820	 1.141165	-1.317592	 0.708170	-1.299566	-2.640982	-5.258189	-0.295060	-106.831300	 88.577420	-160.768500	 67.245550	 70.045880	-65.153980	-6.521352	-2.100164	-20.034740	 1.094351	-2.314964	-5.351571	-4.148122	-11.131160	 2.140749	-5.213516	-0.193813	 3.566525	-1.378229	 35.397820	-2.634230	 1.063328	-0.764191	-2.535923	-0.581422	-8.787824	 1.737557	 94.910370	 86.827570	 171.127500	-22.263520	 80.484440	 22.877310	-5.225281	-11.255620	 21.089780	-29.401330	-3.234309	 9.482569	-8.535267	-7.802329	-37.233500	 5.070815	-0.697434	-9.399699	-2.350882	 35.473990	 5.254307
-1.851030	-14.758180	 1.162866	-14.613640	 20.009390	 3.811338	 3.439619	-33.968060	 175.682800	-2.376900	-42.836170	-1.113386	-1.314565	 82.331890	 0.128113	-2.316274	 38.301380	-0.230993	-0.742092	-34.097980	-179.378100	-2.694324	-40.606660	-0.784447	-1.769382	 83.647080	 1.020180	 2.405246	 21.126250	-0.150651	-0.391969	 13.184900	 1.136637	-1.436574	 0.585831	-1.379411	-2.591140	-5.302045	-0.290473	-107.426400	 88.640730	-160.231500	 65.800110	 69.948310	-64.336860	-7.196396	-2.057380	-21.124970	 0.723137	-2.288069	-5.356945	-4.568010	-11.814680	 1.177291	-5.213516	-0.193813	 3.566525	-1.378229	 35.397820	-2.634230	 1.061371	-0.818401	-2.547136	-0.457183	-8.813895	 1.660977	 94.870890	 86.751820	 171.073300	-22.806300	 80.311680	 23.607610	-5.117183	-11.354000	 21.459560	-29.233180	-3.233545	 9.485644	-8.508783	-7.893726	-37.106990	 5.070815	-0.697434	-9.399699	-2.350882	 35.473990	 5.254307
-1.854287	-14.763550	 1.163819	-14.517190	 19.935830	 3.850180	 3.249779	-33.579280	 175.484300	-2.215396	-42.706780	-1.111888	-1.334456	 82.371120	 0.138509	-2.315817	 38.345980	-0.232151	-0.780217	-33.556040	-179.507500	-2.616817	-40.044580	-0.757804	-1.732439	 83.748120	 1.021342	 2.405488	 20.943050	-0.154324	-0.422928	 12.959010	 1.171931	-1.466489	 0.480754	-1.436195	-2.600070	-5.294227	-0.291298	-108.724500	 88.728360	-158.925800	 63.539150	 69.890180	-63.252270	-8.074209	-2.054731	-22.167920	 0.525891	-2.267675	-5.359905	-5.023088	-13.133780	 0.184126	-5.213516	-0.193813	 3.566525	-1.378229	 35.397820	-2.634230	 1.052209	-0.868525	-2.610229	-0.454319	-8.746494	 1.591005	 94.678310	 86.657190	 171.260400	-24.824410	 80.207180	 26.140780	-4.893173	-11.497580	 21.967830	-28.977620	-3.230648	 9.494008	-8.555117	-7.920885	-37.198430	 5.070815	-0.697434	-9.399699	-2.350882	 35.473990	 5.254307
